<?xml version="1.0" encoding="UTF-8" standalone="no"?>
<!-- Created with Inkscape (http://www.inkscape.org/) -->

<svg
   version="1.1"
   id="svg2"
   width="2933.3333"
   height="2933.3333"
   viewBox="0 0 2933.3333 2933.3333"
   sodipodi:docname="location_ins_multiple_colours.eps"
   xmlns:inkscape="http://www.inkscape.org/namespaces/inkscape"
   xmlns:sodipodi="http://sodipodi.sourceforge.net/DTD/sodipodi-0.dtd"
   xmlns="http://www.w3.org/2000/svg"
   xmlns:svg="http://www.w3.org/2000/svg">
  <defs
     id="defs6" />
  <sodipodi:namedview
     id="namedview4"
     pagecolor="#ffffff"
     bordercolor="#000000"
     borderopacity="0.25"
     inkscape:showpageshadow="2"
     inkscape:pageopacity="0.0"
     inkscape:pagecheckerboard="0"
     inkscape:deskcolor="#d1d1d1" />
  <g
     id="g8"
     inkscape:groupmode="layer"
     inkscape:label="ink_ext_XXXXXX"
     transform="matrix(1.3333333,0,0,-1.3333333,0,2933.3333)">
    <g
       id="g10"
       transform="scale(0.1)">
      <path
         d="M 0,0 H 22000 V 22000 H 0 V 0"
         style="fill:#ffffff;fill-opacity:1;fill-rule:nonzero;stroke:none"
         id="path12" />
      <path
         d="m 9458.64,18062.8 c 0,-2784.8 -2203.9,-4893.4 -2973.73,-5545 -151,-127.8 -372.17,-127.8 -523.17,0 -769.83,651.6 -2973.73,2760.2 -2973.73,5545 0,1786.8 1448.53,3235.4 3235.32,3235.4 1786.78,0 3235.31,-1448.6 3235.31,-3235.4"
         style="fill:#4667ba;fill-opacity:1;fill-rule:nonzero;stroke:none"
         id="path14" />
      <path
         d="m 8297,18062.8 c 0,-1145.2 -928.42,-2073.6 -2073.67,-2073.6 -1145.26,0 -2073.68,928.4 -2073.68,2073.6 0,1145.3 928.42,2073.7 2073.68,2073.7 1145.25,0 2073.67,-928.4 2073.67,-2073.7"
         style="fill:#ffffff;fill-opacity:1;fill-rule:nonzero;stroke:none"
         id="path16" />
      <path
         d="m 8314.96,12341.9 c 0,-407.7 -936.43,-738.2 -2091.63,-738.2 -1155.21,0 -2091.64,330.5 -2091.64,738.2 0,271 413.71,507.9 1030.37,636.3 264.03,-268.6 497.65,-477.6 665.11,-619.4 110.6,-93.6 251.26,-145.1 396.16,-145.1 144.89,0 285.55,51.5 396.15,145.1 167.46,141.8 401.08,350.8 665.11,619.4 616.66,-128.4 1030.37,-365.3 1030.37,-636.3"
         style="fill:#4667ba;fill-opacity:1;fill-rule:nonzero;stroke:none"
         id="path18" />
      <path
         d="m 9458.64,7334.6 c 0,-2784.9 -2203.9,-4893.4 -2973.73,-5545 -151,-127.8 -372.17,-127.8 -523.17,0 -769.83,651.6 -2973.73,2760.1 -2973.73,5545 0,1786.8 1448.53,3235.3 3235.32,3235.3 1786.78,0 3235.31,-1448.5 3235.31,-3235.3"
         style="fill:#040606;fill-opacity:1;fill-rule:nonzero;stroke:none"
         id="path20" />
      <path
         d="m 8297,7334.6 c 0,-1145.3 -928.42,-2073.7 -2073.67,-2073.7 -1145.26,0 -2073.68,928.4 -2073.68,2073.7 0,1145.2 928.42,2073.7 2073.68,2073.7 1145.25,0 2073.67,-928.5 2073.67,-2073.7"
         style="fill:#ffffff;fill-opacity:1;fill-rule:nonzero;stroke:none"
         id="path22" />
      <path
         d="m 8314.96,1613.6 c 0,-407.6 -936.43,-738.198 -2091.63,-738.198 -1155.21,0 -2091.64,330.598 -2091.64,738.198 0,271.1 413.71,507.9 1030.37,636.3 264.03,-268.6 497.65,-477.6 665.11,-619.3 110.6,-93.6 251.26,-145.1 396.16,-145.1 144.89,0 285.55,51.5 396.15,145.1 167.46,141.7 401.08,350.7 665.11,619.3 616.66,-128.4 1030.37,-365.2 1030.37,-636.3"
         style="fill:#040606;fill-opacity:1;fill-rule:nonzero;stroke:none"
         id="path24" />
      <path
         d="m 15603.1,10396.3 c -413.4,0 -814.3,-80.9 -1191.7,-240.5 -364.6,-154.2 -692,-375 -973.3,-656.2 -281.2,-281.3 -502,-608.7 -656.2,-973.3 -159.6,-377.4 -240.5,-778.3 -240.5,-1191.7 0,-625 116.3,-1260.9 345.8,-1890.2 193.9,-531.6 470.7,-1064.9 822.5,-1585.1 635.2,-938.9 1365.3,-1616.8 1744,-1937.2 86.6,-73.3 212.3,-73.4 298.9,0 378.6,320.4 1108.7,998.3 1743.9,1937.2 351.8,520.2 628.6,1053.5 822.5,1585.1 229.5,629.3 345.9,1265.2 345.9,1890.2 0,413.4 -81,814.3 -240.6,1191.7 -154.2,364.6 -375,692 -656.2,973.3 -281.3,281.2 -608.7,502 -973.3,656.2 -377.3,159.6 -778.3,240.5 -1191.7,240.5 z m 0,-8876.7 c -132.7,0 -265.4,45.8 -373.7,137.5 -392.3,332 -1148.7,1034.3 -1807.2,2007.7 -367.7,543.7 -657.5,1102.4 -861.1,1660.7 -243.4,667.5 -366.9,1343.4 -366.9,2009.1 0,460.1 90.2,906.5 268,1326.9 171.7,406 417.5,770.5 730.5,1083.5 313,313 677.5,558.8 1083.5,730.5 420.4,177.8 866.8,268 1326.9,268 460.1,0 906.6,-90.2 1326.9,-268 406,-171.7 770.5,-417.5 1083.5,-730.5 313.1,-313 558.8,-677.5 730.5,-1083.5 177.8,-420.4 268,-866.8 268,-1326.9 0,-665.7 -123.5,-1341.6 -366.9,-2009.1 -203.6,-558.3 -493.3,-1117 -861.1,-1660.7 -658.5,-973.4 -1414.9,-1675.7 -1807.2,-2007.7 -108.2,-91.6 -241,-137.5 -373.7,-137.5"
         style="fill:#040606;fill-opacity:1;fill-rule:nonzero;stroke:none"
         id="path26" />
      <path
         d="m 15603.1,9234.7 c -507.5,0 -984.7,-197.7 -1343.6,-556.5 -358.9,-358.9 -556.5,-836.1 -556.5,-1343.6 0,-507.5 197.6,-984.7 556.5,-1343.6 358.9,-358.9 836.1,-556.5 1343.6,-556.5 507.5,0 984.7,197.6 1343.6,556.5 358.9,358.9 556.5,836.1 556.5,1343.6 0,507.5 -197.6,984.7 -556.5,1343.6 -358.9,358.8 -836.1,556.5 -1343.6,556.5 z m 0,-4147.4 c -600.3,0 -1164.6,233.8 -1589,658.2 -424.5,424.5 -658.2,988.8 -658.2,1589.1 0,600.2 233.7,1164.6 658.2,1589 424.4,424.5 988.7,658.2 1589,658.2 600.3,0 1164.6,-233.7 1589,-658.2 424.5,-424.4 658.3,-988.8 658.3,-1589 0,-600.3 -233.8,-1164.6 -658.3,-1589.1 -424.4,-424.4 -988.7,-658.2 -1589,-658.2"
         style="fill:#040606;fill-opacity:1;fill-rule:nonzero;stroke:none"
         id="path28" />
      <path
         d="m 17868.3,1613.6 c 0,-195.5 -126.3,-473.1 -728.4,-685.6 -413.2,-145.801 -958.9,-226.199 -1536.8,-226.199 -577.8,0 -1123.6,80.398 -1536.8,226.199 -602,212.5 -728.4,490.1 -728.4,685.6 0,246.2 200,418.7 367.7,520.2 134.2,81.1 305.5,152.9 504.7,211.9 94.8,-102 187.2,-197.4 275.7,-285.9 -248.3,-58.2 -454.7,-134.7 -600.8,-223.1 -127.2,-76.9 -200.2,-158.2 -200.2,-223.1 0,-91.1 153.7,-237.1 496.9,-358.3 377,-133.1 881.7,-206.3 1421.2,-206.3 539.5,0 1044.3,73.2 1421.3,206.3 170.1,60.1 306.6,130.7 394.8,204.3 38,31.8 102,94 102,154 0,64.9 -73,146.2 -200.2,223.1 -146.1,88.4 -352.5,164.9 -600.8,223.1 88.5,88.5 180.9,183.9 275.8,285.9 199.1,-59 370.4,-130.8 504.6,-211.9 167.8,-101.5 367.7,-274 367.7,-520.2"
         style="fill:#040606;fill-opacity:1;fill-rule:nonzero;stroke:none"
         id="path30" />
      <path
         d="m 18838.4,18062.8 c 0,-2784.8 -2203.9,-4893.4 -2973.7,-5545 -151,-127.8 -372.2,-127.8 -523.2,0 -769.8,651.6 -2973.7,2760.2 -2973.7,5545 0,1786.8 1448.5,3235.4 3235.3,3235.4 1786.8,0 3235.3,-1448.6 3235.3,-3235.4"
         style="fill:#e13a49;fill-opacity:1;fill-rule:nonzero;stroke:none"
         id="path32" />
      <path
         d="m 17676.8,18062.8 c 0,-1145.2 -928.4,-2073.6 -2073.7,-2073.6 -1145.3,0 -2073.7,928.4 -2073.7,2073.6 0,1145.3 928.4,2073.7 2073.7,2073.7 1145.3,0 2073.7,-928.4 2073.7,-2073.7"
         style="fill:#ffffff;fill-opacity:1;fill-rule:nonzero;stroke:none"
         id="path34" />
      <path
         d="m 17694.7,12341.9 c 0,-407.7 -936.4,-738.2 -2091.6,-738.2 -1155.2,0 -2091.6,330.5 -2091.6,738.2 0,271 413.7,507.9 1030.3,636.3 264.1,-268.6 497.7,-477.6 665.2,-619.4 110.6,-93.6 251.2,-145.1 396.1,-145.1 144.9,0 285.6,51.5 396.2,145.1 167.4,141.8 401,350.8 665.1,619.4 616.6,-128.4 1030.3,-365.3 1030.3,-636.3"
         style="fill:#e13a49;fill-opacity:1;fill-rule:nonzero;stroke:none"
         id="path36" />
    </g>
  </g>
</svg>
